<?xml version="1.0" encoding="UTF-8"?>
<!DOCTYPE svg PUBLIC "-//W3C//DTD SVG 1.1//EN" "http://www.w3.org/Graphics/SVG/1.1/DTD/svg11.dtd">
<!-- Creator: CorelDRAW X7 -->
<svg xmlns="http://www.w3.org/2000/svg" xml:space="preserve" width="1087px" height="520px" version="1.1" style="shape-rendering:geometricPrecision; text-rendering:geometricPrecision; image-rendering:optimizeQuality; fill-rule:evenodd; clip-rule:evenodd"
viewBox="0 0 1087 520"
 xmlns:xlink="http://www.w3.org/1999/xlink">
 <defs>
  <style type="text/css">
   <![CDATA[
    .fil1 {fill:#3c5df5;fill-rule:nonzero}
    .fil0 {fill:#3c5df5;fill-opacity:0.980392}
   ]]>
  </style>
 </defs>
 <g id="Слой_x0020_1">
  <metadata id="CorelCorpID_0Corel-Layer"/>
  <g id="_781545344">
   <g>
    <path class="fil0" d="M541 8c96,1 174,79 174,176 0,96 -79,174 -175,174 -97,-1 -175,-79 -174,-176 0,-96 79,-174 175,-174zm-65 279c4,0 9,3 11,7 1,4 -2,8 -7,8 -5,0 -9,-3 -11,-7 -1,-4 2,-7 7,-8zm-63 -196c4,0 9,3 11,7 1,4 -2,7 -7,7 -5,0 -9,-3 -11,-7 -1,-4 2,-7 7,-7zm14 41c5,-1 9,2 11,6 1,4 -2,8 -7,8 -4,0 -9,-3 -11,-7 -1,-4 2,-7 7,-7zm11 40c5,0 10,3 11,7 1,4 -2,7 -7,7 -4,0 -9,-3 -11,-7 -1,-4 2,-7 7,-7zm17 56c-5,0 -10,-3 -11,-7 -1,-4 2,-8 7,-8 4,0 9,3 11,7 1,4 -2,7 -7,8zm8 21c5,0 9,3 11,7 1,4 -2,7 -7,8 -4,0 -9,-3 -11,-7 -1,-4 2,-8 7,-8zm-18 -164c7,0 13,4 15,9 1,5 -2,10 -9,10 -6,0 -12,-4 -14,-9 -2,-5 2,-9 8,-10zm14 41c7,0 13,4 15,9 1,5 -2,9 -9,10 -6,0 -12,-4 -14,-9 -2,-5 2,-10 8,-10zm13 40c6,0 13,4 15,9 1,5 -3,10 -9,10 -6,0 -12,-4 -14,-9 -2,-5 2,-10 8,-10zm15 40c6,0 13,4 14,9 2,5 -2,10 -8,10 -6,0 -13,-4 -14,-9 -2,-5 2,-10 8,-10zm25 76c6,-1 12,3 14,9 2,5 -2,9 -8,9 -6,1 -13,-3 -15,-9 -1,-5 3,-9 9,-9zm-13 -38c6,-1 12,3 14,8 2,6 -2,10 -8,10 -6,0 -13,-4 -15,-9 -1,-5 3,-9 9,-9zm-12 -165c7,0 15,5 17,11 2,7 -2,12 -10,12 -8,1 -16,-4 -18,-11 -2,-6 3,-11 11,-12zm14 41c7,0 15,5 17,11 2,6 -2,12 -10,12 -8,0 -16,-5 -18,-11 -2,-6 3,-12 11,-12zm11 40c8,0 15,5 17,11 2,7 -2,12 -10,12 -8,1 -15,-4 -17,-11 -2,-6 2,-11 10,-12zm14 40c8,0 16,5 18,11 2,7 -2,12 -10,12 -8,1 -16,-4 -18,-11 -2,-6 3,-11 10,-12zm25 76c8,-1 16,4 18,11 2,6 -3,11 -10,12 -8,0 -16,-5 -18,-11 -2,-7 3,-12 10,-12zm-13 -38c8,-1 16,4 18,11 2,6 -3,11 -10,12 -8,0 -16,-5 -18,-11 -2,-7 3,-12 10,-12zm58 32c9,-1 19,5 21,13 3,7 -3,14 -12,14 -9,0 -19,-6 -21,-13 -2,-8 3,-14 12,-14zm-13 -38c9,-1 19,5 21,13 3,7 -3,13 -12,14 -9,0 -19,-6 -21,-13 -2,-8 3,-14 12,-14zm-12 -38c9,0 19,6 21,13 3,8 -3,14 -12,14 -9,1 -18,-5 -21,-12 -2,-8 3,-14 12,-15zm-12 -38c9,-1 18,5 21,12 2,8 -3,14 -12,15 -10,0 -19,-6 -21,-13 -3,-8 3,-14 12,-14zm89 106c11,-1 23,7 26,16 3,10 -4,18 -15,18 -12,1 -24,-7 -27,-16 -3,-10 4,-18 16,-18zm-13 -38c11,-1 23,7 26,16 3,10 -4,18 -15,18 -12,1 -24,-7 -27,-16 -3,-10 4,-18 16,-18zm-13 -39c12,0 24,7 27,16 3,10 -4,18 -16,18 -11,1 -23,-6 -26,-16 -3,-9 4,-18 15,-18zm-13 -40c12,-1 24,7 27,16 3,10 -4,18 -16,18 -11,1 -23,-7 -26,-16 -3,-10 4,-18 15,-18zm-78 -72c10,0 19,6 21,13 3,8 -3,14 -12,14 -9,1 -18,-5 -21,-13 -2,-7 3,-13 12,-14zm15 41c9,0 18,5 20,13 3,7 -3,14 -12,14 -9,1 -18,-5 -21,-13 -2,-7 3,-14 13,-14zm35 -50c11,0 23,7 26,16 3,10 -4,18 -15,18 -12,1 -24,-6 -27,-16 -3,-9 4,-18 16,-18zm14 41c11,-1 23,7 26,16 3,10 -4,18 -15,18 -12,1 -24,-7 -27,-16 -3,-10 4,-18 16,-18z"/>
    <g>
     <path class="fil0" d="M980 49l-274 -1c9,8 18,17 26,26l248 1 0 -26z"/>
     <path class="fil0" d="M927 101l-178 0c4,8 8,17 11,26l167 1 0 -27z"/>
     <path class="fil0" d="M874 154l-107 -1c1,9 2,17 2,26l105 1 0 -26z"/>
    </g>
    <g>
     <path class="fil0" d="M98 317l273 1c-9,-8 -18,-17 -25,-27l-248 0 0 26z"/>
     <path class="fil0" d="M150 265l178 0c-4,-8 -8,-17 -11,-26l-167 -1 0 27z"/>
     <path class="fil0" d="M203 212l107 1c-1,-9 -2,-18 -2,-27l-105 0 0 26z"/>
    </g>
   </g>
   <path class="fil1" d="M88 395l0 21 -26 0 0 86 -26 0 0 -86 -26 0 0 -21 78 0zm87 20l-51 0 0 22 40 0 0 20 -40 0 0 24 51 0 0 21 -76 0 0 -107 76 0 0 20zm24 87l-22 0 30 -107 34 0 30 107 -27 0 -22 -85 -23 85zm157 -87l-51 0 0 22 40 0 0 20 -40 0 0 24 51 0 0 21 -76 0 0 -107 76 0 0 20zm40 -20l0 50 33 -50 24 0 -25 38 32 69 -28 0 -21 -46 -15 21 0 25 -25 0 0 -107 25 0zm112 108c-15,0 -26,-5 -34,-16 -8,-11 -11,-24 -11,-39 0,-15 4,-28 12,-39 8,-10 19,-16 34,-16 15,0 26,6 33,17 8,11 12,24 12,38 0,16 -4,29 -12,40 -8,10 -19,15 -34,15zm0 -89c-13,0 -19,11 -19,34 0,24 6,35 19,35 13,0 20,-11 20,-34 0,-24 -7,-35 -20,-35zm109 88l-26 -87 0 87 -21 0 0 -107 39 0 19 64 19 -64 39 0 0 107 -25 0 0 -87 -27 87 -17 0zm177 0l-26 -87 0 87 -21 0 0 -107 39 0 19 64 19 -64 39 0 0 107 -25 0 0 -87 -27 87 -17 0zm90 0l0 -107 80 0 0 107 -25 0 0 -87 -30 0 0 87 -25 0zm125 -107l0 51 34 -51 24 0 -26 38 32 69 -27 0 -22 -46 -15 22 0 24 -24 0 0 -107 24 0z"/>
  </g>
 </g>
</svg>
